<?xml version="1.0" encoding="UTF-8" standalone="no"?>
<!-- Created with Inkscape (http://www.inkscape.org/) -->

<svg
   xmlns:dc="http://purl.org/dc/elements/1.1/"
   xmlns:cc="http://creativecommons.org/ns#"
   xmlns:rdf="http://www.w3.org/1999/02/22-rdf-syntax-ns#"
   xmlns:svg="http://www.w3.org/2000/svg"
   xmlns="http://www.w3.org/2000/svg"
   xmlns:sodipodi="http://sodipodi.sourceforge.net/DTD/sodipodi-0.dtd"
   xmlns:inkscape="http://www.inkscape.org/namespaces/inkscape"
   width="74.623962mm"
   height="74.62326mm"
   viewBox="0 0 74.623962 74.62326"
   version="1.1"
   id="svg8"
   inkscape:version="0.92.4 (5da689c313, 2019-01-14)"
   sodipodi:docname="uib.svg">
  <defs
     id="defs2">
    <clipPath
       id="clipPath3735"
       clipPathUnits="userSpaceOnUse">
      <path
         inkscape:connector-curvature="0"
         id="path3733"
         d="M 0,296.973 H 744.626 V 0 H 0 Z" />
    </clipPath>
  </defs>
  <sodipodi:namedview
     id="base"
     pagecolor="#ffffff"
     bordercolor="#666666"
     borderopacity="1.0"
     inkscape:pageopacity="0.0"
     inkscape:pageshadow="2"
     inkscape:zoom="0.35"
     inkscape:cx="399.27694"
     inkscape:cy="-32.063832"
     inkscape:document-units="mm"
     inkscape:current-layer="g3731"
     showgrid="false"
     fit-margin-top="0"
     fit-margin-left="0"
     fit-margin-right="0"
     fit-margin-bottom="0"
     inkscape:window-width="1366"
     inkscape:window-height="705"
     inkscape:window-x="-8"
     inkscape:window-y="-8"
     inkscape:window-maximized="1" />
  <metadata
     id="metadata5">
    <rdf:RDF>
      <cc:Work
         rdf:about="">
        <dc:format>image/svg+xml</dc:format>
        <dc:type
           rdf:resource="http://purl.org/dc/dcmitype/StillImage" />
        <dc:title></dc:title>
      </cc:Work>
    </rdf:RDF>
  </metadata>
  <g
     inkscape:label="Capa 1"
     inkscape:groupmode="layer"
     id="layer1"
     transform="translate(-0.19130981,-65.72652)">
    <g
       transform="matrix(0.35277777,0,0,-0.35277777,30.430055,177.78155)"
       inkscape:label="338780_logo-uib-horizontal"
       id="g3721">
      <g
         id="g3729"
         transform="translate(-126.42858,64.285713)">
        <g
           clip-path="url(#clipPath3735)"
           id="g3731">
          <g
             transform="translate(157.0112,46.1836)"
             id="g3849">
            <path
               inkscape:connector-curvature="0"
               id="path3851"
               style="fill:#005db9;fill-opacity:1;fill-rule:nonzero;stroke:none"
               d="m 0,0 c -5.816,-5.818 -15.247,-5.818 -21.065,0 l -90.871,90.871 c -5.817,5.817 -5.817,15.246 0,21.063 l 90.871,90.871 c 5.818,5.816 15.247,5.816 21.065,0 l 90.871,-90.871 c 5.817,-5.817 5.817,-15.246 0,-21.063 z" />
          </g>
          <g
             transform="translate(145.7109,204.2144)"
             id="g3853">
            <path
               inkscape:connector-curvature="0"
               id="path3855"
               style="fill:#ffffff;fill-opacity:1;fill-rule:nonzero;stroke:none"
               d="M 0,0 C 16.782,0 22.333,-15.123 20.115,-19.563 12.346,-9.574 -11.24,-8.603 -16.51,-19.007 -23.722,-20.673 -14.709,0 0,0" />
          </g>
          <g
             transform="translate(132.6382,109.585)"
             id="g3857">
            <path
               inkscape:connector-curvature="0"
               id="path3859"
               style="fill:#ffffff;fill-opacity:1;fill-rule:nonzero;stroke:none"
               d="m 0,0 c 3.609,-5.826 3.192,-6.101 5.274,-9.294 2.771,-4.16 8.876,13.592 11.373,9.988 3.749,-16.65 10.268,-12.763 21.504,-7.49 8.044,-5.967 -27.193,-22.755 -24.139,-3.468 C 7.77,-14.429 7.77,-19.282 2.499,-18.729 l -3.748,9.853 c -3.189,-3.193 -2.77,-5.14 -6.241,-9.436 C -15.118,-13.179 -3.05,-4.716 0,0" />
          </g>
          <g
             transform="translate(151.4487,167.2891)"
             id="g3861">
            <path
               inkscape:connector-curvature="0"
               id="path3863"
               style="fill:#ffffff;fill-opacity:1;fill-rule:nonzero;stroke:none"
               d="m 0,0 4.678,1.439 v 2.45 C 2.446,3.745 -1.657,3.672 -5.187,3.672 c -3.457,0 -7.199,0.073 -9.432,0.217 V 1.439 L -9.94,0.071 v -39.82 l -4.679,-1.442 v -2.445 c 2.233,0.072 6.337,0.212 9.795,0.212 3.529,0 7.27,-0.071 9.502,-0.212 v 2.445 L 0,-39.749 Z" />
          </g>
          <g
             transform="translate(195.9346,160.3833)"
             id="g3865">
            <path
               inkscape:connector-curvature="0"
               id="path3867"
               style="fill:#ffffff;fill-opacity:1;fill-rule:nonzero;stroke:none"
               d="m 0,0 c 0,-5.762 -4.174,-8.643 -9.72,-10.224 v -0.147 c 8.639,-2.23 11.81,-7.487 11.81,-13.033 0,-7.849 -5.112,-13.466 -17.067,-13.466 -5.615,0 -8.323,0.361 -13.29,0.361 -3.384,0 -4.755,-0.142 -7.561,-0.217 v 2.451 l 4.681,1.225 V 7.129 l -4.681,1.224 v 2.449 c 0.503,-0.072 3.886,-0.217 7.561,-0.217 6.262,0.073 6.668,0.289 11.491,0.289 C -5.903,10.874 0,7.203 0,0 m -18.646,-12.17 h -2.566 v -21.459 h 4.725 c 6.409,0 8.279,4.823 8.279,10.586 0,6.338 -3.312,10.873 -10.438,10.873 m -2.566,3.096 h 1.583 c 7.491,0 9.334,2.018 9.334,8.352 0,5.691 -2.45,8.355 -7.632,8.355 h -3.285 z" />
          </g>
          <g
             transform="translate(133.7524,168.7368)"
             id="g3869">
            <path
               inkscape:connector-curvature="0"
               id="path3871"
               style="fill:#ffffff;fill-opacity:1;fill-rule:nonzero;stroke:none"
               d="M 0,0 V 2.438 C -2.12,2.296 -4.434,2.221 -7.541,2.221 c -3.044,0 -5.959,0.148 -8.078,0.217 V 0 l 6.084,-1.363 v -23.462 c 0,-10.405 -2.814,-16.528 -10.828,-16.528 -7.211,0 -9.97,5.045 -9.97,16.528 V -1.436 L -26.034,0 v 2.438 c -2.053,-0.142 -5.755,-0.217 -9.063,-0.217 -3.174,0 -6.549,0.148 -8.601,0.217 V 0 l 4.239,-1.363 v -24.182 c 0,-12.413 5.07,-20.091 17.311,-20.091 10.514,0 16.327,7.176 16.327,20.091 v 24.182 z" />
          </g>
        </g>
      </g>
    </g>
  </g>
</svg>
